<svg width="185" height="185" viewBox="0 0 185 185" fill="none" xmlns="http://www.w3.org/2000/svg">
<path d="M17.5 94C17.5 52.5786 51.0786 19 92.5 19C133.921 19 167.5 52.5786 167.5 94C167.5 135.421 133.921 169 92.5 169C51.0786 169 17.5 135.421 17.5 94Z" fill="#EC2C4F"/>
<path d="M66.8535 65.779C70.6634 61.9691 76.8405 61.9691 80.6504 65.7791L120.309 105.438C124.119 109.248 124.119 115.425 120.309 119.235L118.145 121.399C114.335 125.209 108.158 125.209 104.348 121.399L64.6891 81.7403C60.8792 77.9304 60.8792 71.7534 64.6891 67.9435L66.8535 65.779Z" fill="white"/>
<path d="M120.31 67.9434C124.119 71.7533 124.119 77.9303 120.31 81.7402L80.6505 121.399C76.8406 125.209 70.6635 125.209 66.8536 121.399L64.6892 119.235C60.8793 115.425 60.8793 109.248 64.6892 105.438L104.348 65.779C108.158 61.9691 114.335 61.9691 118.145 65.779L120.31 67.9434Z" fill="white"/>
</svg>
